<svg xmlns="http://www.w3.org/2000/svg" viewBox="0 0 250 250"><title>Chinesepod_LEVEL_Elementary</title><g id="Layer_1" data-name="Layer 1"><path d="M0,0V250H250V0Z" fill="#fff"/><path d="M250,0H0V250H250V0Z" fill="#35c567" opacity="0.2"/><rect x="10" y="144" width="230" height="96" fill="#fff"/><path d="M0,0V250H250V0ZM240,240H10V10H240Z" fill="#35c567"/><path d="M49.94,192.47H42.72v6.09H49.6l.19-2.55H53v5.83H36.17v-2.56l2.27-.44V183.53l-2.27-.44v-2.58H53v5.85H49.73l-.19-2.55H42.72v5.36h7.22Z"/><path d="M56.48,181.57V179H63v19.85l2.06.44v2.56H56.7v-2.56l2.06-.44V182Z"/><path d="M75.58,202.15A7.14,7.14,0,0,1,70.1,200a7.87,7.87,0,0,1-2-5.58v-.59A8.63,8.63,0,0,1,70,188a7.23,7.23,0,0,1,10.18-.34A7.45,7.45,0,0,1,82,192.86v2.33H72.49l0,.09a4.18,4.18,0,0,0,1.05,2.58,3.28,3.28,0,0,0,2.53,1,8.3,8.3,0,0,0,2.36-.29,11.17,11.17,0,0,0,2-.9l1.15,2.64a8.27,8.27,0,0,1-2.54,1.3A10.86,10.86,0,0,1,75.58,202.15ZM75.2,189a2.24,2.24,0,0,0-1.87.91,4.76,4.76,0,0,0-.85,2.39l0,.07h5.25V192a3.44,3.44,0,0,0-.64-2.17A2.32,2.32,0,0,0,75.2,189Z"/><path d="M85,188.57V186h6.25l.18,2.1a5.3,5.3,0,0,1,1.91-1.77A5.56,5.56,0,0,1,96,185.7a4.85,4.85,0,0,1,2.61.67,4.17,4.17,0,0,1,1.64,2,5.51,5.51,0,0,1,1.9-2,5.16,5.16,0,0,1,2.76-.72,4.55,4.55,0,0,1,3.69,1.62,7.52,7.52,0,0,1,1.36,4.93v6.59l2.07.44v2.56h-8.19v-2.56l1.84-.44v-6.61a4,4,0,0,0-.58-2.5,2.15,2.15,0,0,0-1.75-.71,3,3,0,0,0-1.57.41,2.86,2.86,0,0,0-1.06,1.12c0,.18,0,.34,0,.47s0,.27,0,.41v7.41l1.72.44v2.56H94.73v-2.56l1.73-.44v-6.61a4,4,0,0,0-.58-2.48,2.14,2.14,0,0,0-1.76-.73,3.34,3.34,0,0,0-1.52.33,2.9,2.9,0,0,0-1.07.93v8.56l1.84.44v2.56H85.2v-2.56l2.06-.44V189Z"/><path d="M122.32,202.15a7.1,7.1,0,0,1-5.47-2.2,7.83,7.83,0,0,1-2.06-5.58v-.59a8.63,8.63,0,0,1,1.95-5.81,7.23,7.23,0,0,1,10.18-.34,7.45,7.45,0,0,1,1.78,5.23v2.33h-9.47l0,.09a4.18,4.18,0,0,0,1,2.58,3.28,3.28,0,0,0,2.53,1,8.3,8.3,0,0,0,2.36-.29,11.17,11.17,0,0,0,2-.9l1.15,2.64a8.27,8.27,0,0,1-2.54,1.3A10.86,10.86,0,0,1,122.32,202.15ZM121.94,189a2.24,2.24,0,0,0-1.87.91,4.76,4.76,0,0,0-.85,2.39l0,.07h5.25V192a3.44,3.44,0,0,0-.64-2.17A2.32,2.32,0,0,0,121.94,189Z"/><path d="M132,199.28l2.05-.44V189l-2.27-.44V186H138l.19,2.27a5.85,5.85,0,0,1,1.95-1.89,5,5,0,0,1,2.59-.67,4.76,4.76,0,0,1,3.75,1.51,6.94,6.94,0,0,1,1.35,4.73v6.9l2.05.44v2.56h-8.18v-2.56l1.84-.44V192a3.21,3.21,0,0,0-.65-2.26A2.62,2.62,0,0,0,141,189a3.3,3.3,0,0,0-1.52.35,3.1,3.1,0,0,0-1.13,1v8.5l1.73.44v2.56H132Z"/><path d="M159.07,182.11V186h2.79v3h-2.79v8.08a1.86,1.86,0,0,0,.38,1.31,1.36,1.36,0,0,0,1,.4,7,7,0,0,0,1.51-.16l.36,3.09a9.11,9.11,0,0,1-1.42.33,10.14,10.14,0,0,1-1.52.11,4.59,4.59,0,0,1-3.41-1.22,5.35,5.35,0,0,1-1.19-3.85V189h-2.33v-3h2.33v-3.88Z"/><path d="M175.54,201.84a7.1,7.1,0,0,1-.3-.81,6.45,6.45,0,0,1-.21-.84,5.93,5.93,0,0,1-1.85,1.42,5.57,5.57,0,0,1-2.5.54,5.23,5.23,0,0,1-3.7-1.27,4.47,4.47,0,0,1-1.37-3.45A3.93,3.93,0,0,1,167.4,194a9.33,9.33,0,0,1,5.24-1.22h2.19v-1.55a2.33,2.33,0,0,0-.66-1.77,2.72,2.72,0,0,0-1.95-.63,4.66,4.66,0,0,0-1.3.17,3.24,3.24,0,0,0-.93.4l-.28,1.7h-3.22l0-3.52a12.18,12.18,0,0,1,2.68-1.33,9.82,9.82,0,0,1,3.31-.54,7.54,7.54,0,0,1,4.78,1.44,4.9,4.9,0,0,1,1.84,4.11v6.55c0,.24,0,.47,0,.69a4,4,0,0,0,.05.61l1.3.18v2.56Zm-3.7-2.85a3.72,3.72,0,0,0,1.76-.42,3.54,3.54,0,0,0,1.23-1V195.1h-2.19a3,3,0,0,0-2.06.64,2,2,0,0,0-.7,1.53,1.57,1.57,0,0,0,.52,1.26A2.11,2.11,0,0,0,171.84,199Z"/><path d="M183.75,199.28l2.05-.44V189l-2.27-.44V186h6.26l.19,2.32a5,5,0,0,1,1.43-1.92,3.23,3.23,0,0,1,2-.69,5.92,5.92,0,0,1,.71.05,4.89,4.89,0,0,1,.62.12l-.45,3.9-1.76,0a3,3,0,0,0-1.55.36,2.43,2.43,0,0,0-.94,1v7.71l2,.44v2.56h-8.38Z"/><path d="M214.23,188.57l-1.48.22-5.83,15.42a8.53,8.53,0,0,1-1.84,2.88,4.69,4.69,0,0,1-3.46,1.15,5.38,5.38,0,0,1-1-.09c-.32-.05-.69-.14-1.12-.24l.49-3.12.43.05.38,0a2.34,2.34,0,0,0,1.64-.52,3.37,3.37,0,0,0,.88-1.29l.48-1.2-5-13.06-1.48-.23V186H205v2.58l-1.77.29,2.17,6.33.22,1.14.09,0,2.5-7.49-1.79-.29V186h7.77Z"/><polygon points="240 30.15 143.71 70.83 137.74 73.36 141.2 70.03 203.68 10 214.09 0 207.39 0 206.08 0 199.7 0 190.09 10 134.59 67.77 134.21 68.17 134.48 67.55 160.57 10 165.11 0 161.18 0 159.01 0 155.19 0 151.13 10 130.43 61 128.07 66.8 128.22 59.69 129.21 10 129.41 0 126.14 0 123.86 0 120.59 0 120.79 10 121.78 59.71 121.9 65.64 120.04 60.69 100.97 10 97.21 0 93.47 0 91.28 0 87.45 0 91.67 10 115.79 67.07 116.61 69.01 115.43 67.79 59.91 10 50.3 0 43.92 0 42.61 0 35.91 0 46.32 10 108.73 69.97 111.42 72.55 106.88 70.49 10 26.57 0 22.04 0 28.01 0 28.13 0 34 10 38.06 102.12 75.45 109.11 78.3 110.05 78.67 109.16 78.66 101.61 78.51 10 76.67 0 76.47 0 81.47 0 82.03 0 87.03 10 86.83 104.68 84.93 108.89 84.85 105.78 86.02 10 122.05 0 125.81 0 131.56 0 131.74 0 137.58 10 133.35 107.79 92.03 112.26 90.14 107.31 94.9 56.2 144 61.34 144 64.21 144 69.04 144 109.62 101.76 114.85 96.31 115.8 95.33 115.18 96.69 112.08 103.54 93.73 144 96.73 144 99.83 144 102.72 144 119.09 103.69 121.92 96.7 121.81 102.3 120.98 144 123.47 144 126.53 144 129.02 144 128.19 102.38 128.1 97.86 130.19 103.44 145.45 144 148.29 144 151.38 144 154.31 144 137.33 103.81 134.41 96.89 134.41 96.89 133.4 94.49 135.1 96.26 135.1 96.27 140.36 101.74 180.96 144 185.79 144 188.66 144 193.79 144 142.58 94.79 138.59 90.95 142.22 92.6 240 136.93 250 141.46 250 135.49 250 135.37 250 129.5 240 125.44 143.87 86.42 139.95 84.83 145.4 84.93 240 86.83 250 87.03 250 82.03 250 81.47 250 76.47 240 76.67 148.4 78.51 141.12 78.65 148.05 76.05 240 41.45 250 37.7 250 31.95 250 31.77 250 25.92 240 30.15" fill="#35c567"/><rect x="10" y="10" width="230" height="134" fill="none"/><rect x="105.25" y="81.78" width="39.25" height="19" fill="#35c567"/><path d="M100.12,76l4.39-8.84a1,1,0,0,1,1.79,0L110.65,76l9.76,1.44a1,1,0,0,1,.55,1.71L113.87,86l1.65,9.74a1,1,0,0,1-1.46,1l-8.72-4.62-8.75,4.57a1,1,0,0,1-1.45-1.06L96.83,86l-7-6.91a1,1,0,0,1,.56-1.71Z" fill="#fff"/><path d="M105.4,66.57a1,1,0,0,1,.9.56L110.65,76l9.76,1.44a1,1,0,0,1,.55,1.71L113.87,86l1.65,9.74a1,1,0,0,1-1,1.17,1.06,1.06,0,0,1-.47-.12l-8.72-4.62-8.75,4.57a1,1,0,0,1-.47.12,1,1,0,0,1-1-1.18L96.83,86l-7-6.91a1,1,0,0,1,.56-1.71L100.12,76l4.39-8.84a1,1,0,0,1,.89-.56m0-7.5h0a8.45,8.45,0,0,0-7.61,4.72L95.15,69.1l-5.87.84a8.5,8.5,0,0,0-4.75,14.48l4.24,4.15-1,5.84a8.5,8.5,0,0,0,12.31,9l5.25-2.75,5.24,2.78a8.65,8.65,0,0,0,4,1,8.5,8.5,0,0,0,8.38-9.92l-1-5.85,4.25-4.12A8.49,8.49,0,0,0,121.51,70l-5.86-.87L113,63.83a8.47,8.47,0,0,0-7.64-4.76Z" fill="#35c567"/><path d="M139.37,76l4.39-8.84a1,1,0,0,1,1.79,0L149.9,76l9.76,1.44a1,1,0,0,1,.55,1.71L153.12,86l1.65,9.74a1,1,0,0,1-1.46,1l-8.72-4.62-8.75,4.57a1,1,0,0,1-1.45-1.06L136.08,86,129,79.07a1,1,0,0,1,.56-1.71Z" fill="#fff"/><path d="M144.65,66.57a1,1,0,0,1,.9.56L149.9,76l9.76,1.44a1,1,0,0,1,.55,1.71L153.12,86l1.65,9.74a1,1,0,0,1-1,1.17,1.06,1.06,0,0,1-.47-.12l-8.72-4.62-8.75,4.57a1,1,0,0,1-.47.12,1,1,0,0,1-1-1.18L136.08,86,129,79.07a1,1,0,0,1,.56-1.71L139.37,76l4.39-8.84a1,1,0,0,1,.89-.56m0-7.5h0A8.45,8.45,0,0,0,137,63.79L134.4,69.1l-5.87.84a8.5,8.5,0,0,0-4.75,14.48L128,88.57l-1,5.84a8.5,8.5,0,0,0,12.31,9l5.25-2.75,5.24,2.78a8.65,8.65,0,0,0,4,1,8.5,8.5,0,0,0,8.38-9.92l-1-5.85,4.25-4.12A8.49,8.49,0,0,0,160.76,70l-5.86-.87-2.61-5.33a8.47,8.47,0,0,0-7.64-4.76Z" fill="#35c567"/></g></svg>