<svg xmlns="http://www.w3.org/2000/svg" viewBox="0 0 250 250"><title>Chinesepod_LEVEL_Newbie</title><g id="Layer_1" data-name="Layer 1"><path d="M0,0V250H250V0Z" fill="#fff"/><path d="M250,0H0V250H250V0Z" fill="#2487c1" opacity="0.2"/><rect x="10" y="144" width="230" height="96" fill="#fff"/><path d="M0,0V250H250V0ZM240,240H10V10H240Z" fill="#2487c1"/><path d="M90.79,180.51v2.58l-2.29.44v18.31H84.24l-8.61-14.35h-.09v11.34l2.28.44v2.56H69v-2.56l2.27-.44V183.53L69,183.09v-2.58h6.55l8.61,14.36.09,0V183.53L82,183.09v-2.58h8.83Z"/><path d="M101.36,202.15a7.11,7.11,0,0,1-5.48-2.2,7.83,7.83,0,0,1-2-5.58v-.59A8.62,8.62,0,0,1,95.77,188a7.24,7.24,0,0,1,10.19-.34,7.45,7.45,0,0,1,1.77,5.23v2.33H98.27l0,.09a4.12,4.12,0,0,0,1,2.58,3.29,3.29,0,0,0,2.53,1,8.25,8.25,0,0,0,2.36-.29,10.89,10.89,0,0,0,2-.9l1.16,2.64a8.45,8.45,0,0,1-2.55,1.3A10.8,10.8,0,0,1,101.36,202.15ZM101,189a2.24,2.24,0,0,0-1.87.91,4.76,4.76,0,0,0-.85,2.39l0,.07h5.25V192a3.38,3.38,0,0,0-.64-2.17A2.31,2.31,0,0,0,101,189Z"/><path d="M133.84,188.57l-1.6.21-3.31,13.06h-3.57l-3-9.43h-.09l-2.94,9.43h-3.56l-3.33-13.06-1.59-.21V186h7.18v2.58l-1.69.32,1.5,7.25H118l3-10.15h2.87l3,10.18h.09l1.48-7.26-1.7-.34V186h7.18Z"/><path d="M152.12,194.36a9.25,9.25,0,0,1-1.58,5.67,5.36,5.36,0,0,1-4.57,2.12,4.63,4.63,0,0,1-4.14-2.26l-.31,2h-3.69V182l-2.27-.44V179h6.53v8.69a4.8,4.8,0,0,1,1.65-1.47,4.61,4.61,0,0,1,2.2-.51,5.25,5.25,0,0,1,4.6,2.28,10.41,10.41,0,0,1,1.58,6.07Zm-4.26-.31a8.31,8.31,0,0,0-.68-3.67,2.4,2.4,0,0,0-2.32-1.36,3.19,3.19,0,0,0-1.69.42,2.93,2.93,0,0,0-1.08,1.2v6.69a2.65,2.65,0,0,0,1.09,1.11,3.46,3.46,0,0,0,1.71.38,2.42,2.42,0,0,0,2.31-1.16,6.79,6.79,0,0,0,.66-3.3Z"/><path d="M155.47,199.28l2.07-.44V189l-2.29-.44V186h6.56v12.85l2.05.44v2.56h-8.39Zm6.34-17.08h-4.27V179h4.27Z"/><path d="M174.36,202.15a7.12,7.12,0,0,1-5.48-2.2,7.83,7.83,0,0,1-2-5.58v-.59a8.68,8.68,0,0,1,1.94-5.81,7.24,7.24,0,0,1,10.19-.34,7.45,7.45,0,0,1,1.77,5.23v2.33h-9.46l0,.09a4.13,4.13,0,0,0,1,2.58,3.27,3.27,0,0,0,2.52,1,8.2,8.2,0,0,0,2.36-.29,10.61,10.61,0,0,0,2.05-.9l1.16,2.64a8.39,8.39,0,0,1-2.54,1.3A10.86,10.86,0,0,1,174.36,202.15ZM174,189a2.25,2.25,0,0,0-1.88.91,4.76,4.76,0,0,0-.85,2.39l.05.07h5.24V192a3.38,3.38,0,0,0-.64-2.17A2.29,2.29,0,0,0,174,189Z"/><polygon points="240 30.15 143.71 70.83 137.74 73.36 141.2 70.03 203.68 10 214.09 0 207.39 0 206.08 0 199.7 0 190.09 10 134.59 67.77 134.21 68.17 134.48 67.55 160.57 10 165.11 0 161.18 0 159.01 0 155.19 0 151.13 10 130.43 61 128.07 66.8 128.22 59.69 129.21 10 129.41 0 126.14 0 123.86 0 120.59 0 120.79 10 121.78 59.71 121.9 65.64 120.04 60.69 100.97 10 97.21 0 93.47 0 91.28 0 87.45 0 91.67 10 115.79 67.07 116.61 69.01 115.43 67.79 59.91 10 50.3 0 43.92 0 42.61 0 35.91 0 46.32 10 108.73 69.97 111.42 72.55 106.88 70.49 10 26.57 0 22.04 0 28.01 0 28.13 0 34 10 38.06 102.12 75.45 109.11 78.3 110.05 78.67 109.16 78.66 101.61 78.51 10 76.67 0 76.47 0 81.47 0 82.03 0 87.03 10 86.83 104.68 84.93 108.89 84.85 105.78 86.02 10 122.05 0 125.81 0 131.56 0 131.74 0 137.58 10 133.35 107.79 92.03 112.26 90.14 107.31 94.9 56.2 144 61.34 144 64.21 144 69.04 144 109.62 101.76 114.85 96.31 115.8 95.33 115.18 96.69 112.08 103.54 93.73 144 96.73 144 99.83 144 102.72 144 119.09 103.69 121.92 96.7 121.81 102.3 120.98 144 123.47 144 126.53 144 129.02 144 128.19 102.38 128.1 97.86 130.19 103.44 145.45 144 148.29 144 151.38 144 154.31 144 137.33 103.81 134.41 96.89 134.41 96.89 133.4 94.49 135.1 96.26 135.1 96.27 140.36 101.74 180.96 144 185.79 144 188.66 144 193.79 144 142.58 94.79 138.59 90.95 142.22 92.6 240 136.93 250 141.46 250 135.49 250 135.37 250 129.5 240 125.44 143.87 86.42 139.95 84.83 145.4 84.93 240 86.83 250 87.03 250 82.03 250 81.47 250 76.47 240 76.67 148.4 78.51 141.12 78.65 148.05 76.05 240 41.45 250 37.7 250 31.95 250 31.77 250 25.92 240 30.15" fill="#2487c1"/><rect x="10" y="10" width="230" height="134" fill="none"/><path d="M119.74,76l4.39-8.84a1,1,0,0,1,1.8,0L130.27,76,140,77.44a1,1,0,0,1,.55,1.71L133.5,86l1.64,9.74a1,1,0,0,1-1.45,1L125,92.19l-8.75,4.57a1,1,0,0,1-1.45-1.06l1.7-9.72-7-6.91a1,1,0,0,1,.56-1.71Z" fill="#fff"/>
</g></svg>
