<svg xmlns="http://www.w3.org/2000/svg" viewBox="0 0 250 250"><title>Chinesepod_LEVEL_intermediate</title><g id="Layer_1" data-name="Layer 1"><path d="M0,0V250H250V0Z" fill="#fff"/><path d="M250,0H0V250H250V0Z" fill="#ff4d0f" opacity="0.2"/><rect x="10" y="144" width="230" height="96" fill="#fff"/><path d="M0,0V250H250V0ZM240,240H10V10H240Z" fill="#ff4d0f"/><path d="M26.09,183.09v-2.58h8.83v2.58l-2.28.44v15.31l2.28.44v2.56H26.09v-2.56l2.29-.44V183.53Z"/><path d="M37.92,199.28l2-.44V189l-2.27-.44V186H44l.19,2.27a5.85,5.85,0,0,1,2-1.89,5.05,5.05,0,0,1,2.59-.67,4.73,4.73,0,0,1,3.75,1.51,6.94,6.94,0,0,1,1.35,4.73v6.9l2,.44v2.56H47.66v-2.56l1.83-.44V192a3.21,3.21,0,0,0-.64-2.26,2.62,2.62,0,0,0-2-.67,3.32,3.32,0,0,0-1.53.35,3.07,3.07,0,0,0-1.12,1v8.5l1.72.44v2.56h-8Z"/><path d="M65,182.11V186h2.78v3H65v8.08a1.86,1.86,0,0,0,.38,1.31,1.33,1.33,0,0,0,1,.4,5.78,5.78,0,0,0,.77,0,5.94,5.94,0,0,0,.74-.12l.37,3.09a9.38,9.38,0,0,1-1.42.33,10.34,10.34,0,0,1-1.52.11,4.57,4.57,0,0,1-3.41-1.22,5.3,5.3,0,0,1-1.19-3.85V189H58.42v-3h2.33v-3.88Z"/><path d="M79,202.15A7.1,7.1,0,0,1,73.5,200a7.83,7.83,0,0,1-2-5.58v-.59A8.62,8.62,0,0,1,73.39,188a7.23,7.23,0,0,1,10.18-.34,7.4,7.4,0,0,1,1.78,5.23v2.33H75.88l0,.09a4.18,4.18,0,0,0,1.05,2.58,3.28,3.28,0,0,0,2.53,1,8.25,8.25,0,0,0,2.36-.29,10.89,10.89,0,0,0,2-.9L85,200.32a8.45,8.45,0,0,1-2.55,1.3A10.86,10.86,0,0,1,79,202.15ZM78.59,189a2.24,2.24,0,0,0-1.87.91,4.76,4.76,0,0,0-.85,2.39l0,.07h5.25V192a3.44,3.44,0,0,0-.64-2.17A2.31,2.31,0,0,0,78.59,189Z"/><path d="M89.19,199.28l2-.44V189L89,188.57V186h6.26l.19,2.32a5,5,0,0,1,1.43-1.92,3.23,3.23,0,0,1,2-.69,6.07,6.07,0,0,1,.71.05,5.27,5.27,0,0,1,.62.12l-.45,3.9-1.76,0a3,3,0,0,0-1.55.36,2.37,2.37,0,0,0-.94,1v7.71l2,.44v2.56H89.19Z"/><path d="M102.5,188.57V186h6.25l.18,2.1a5.3,5.3,0,0,1,1.91-1.77,5.56,5.56,0,0,1,2.66-.62,4.87,4.87,0,0,1,2.61.67,4.23,4.23,0,0,1,1.64,2,5.43,5.43,0,0,1,1.9-2,5.15,5.15,0,0,1,2.75-.72,4.55,4.55,0,0,1,3.7,1.62,7.52,7.52,0,0,1,1.36,4.93v6.59l2.06.44v2.56h-8.19v-2.56l1.85-.44v-6.61a3.93,3.93,0,0,0-.59-2.5,2.13,2.13,0,0,0-1.74-.71,2.91,2.91,0,0,0-2.64,1.53c0,.18,0,.34,0,.47s0,.27,0,.41v7.41l1.73.44v2.56h-7.72v-2.56l1.73-.44v-6.61a4,4,0,0,0-.58-2.48,2.16,2.16,0,0,0-1.76-.73,3.34,3.34,0,0,0-1.52.33,3,3,0,0,0-1.08.93v8.56l1.85.44v2.56h-8.17v-2.56l2.06-.44V189Z"/><path d="M139.84,202.15a7.14,7.14,0,0,1-5.48-2.2,7.87,7.87,0,0,1-2.05-5.58v-.59a8.68,8.68,0,0,1,1.94-5.81,7.24,7.24,0,0,1,10.19-.34,7.45,7.45,0,0,1,1.77,5.23v2.33h-9.46l0,.09a4.18,4.18,0,0,0,1.05,2.58,3.28,3.28,0,0,0,2.53,1,8.18,8.18,0,0,0,2.35-.29,10.61,10.61,0,0,0,2-.9l1.16,2.64a8.27,8.27,0,0,1-2.54,1.3A10.86,10.86,0,0,1,139.84,202.15ZM139.46,189a2.22,2.22,0,0,0-1.87.91,4.66,4.66,0,0,0-.85,2.39l0,.07H142V192a3.44,3.44,0,0,0-.63-2.17A2.32,2.32,0,0,0,139.46,189Z"/><path d="M160.05,199.91a5.29,5.29,0,0,1-1.77,1.67,4.67,4.67,0,0,1-2.32.57,5.37,5.37,0,0,1-4.55-2.14,9.13,9.13,0,0,1-1.62-5.65v-.31a10.29,10.29,0,0,1,1.63-6.05,5.28,5.28,0,0,1,4.57-2.3,4.37,4.37,0,0,1,2.14.52,5.39,5.39,0,0,1,1.67,1.47V182l-2.29-.44V179h6.57v19.85l2,.44v2.56h-5.76Zm-6-5.55a6.46,6.46,0,0,0,.7,3.27,2.41,2.41,0,0,0,2.27,1.19,3.25,3.25,0,0,0,1.63-.38,3,3,0,0,0,1.13-1.1v-6.72a3.26,3.26,0,0,0-1.12-1.18,3,3,0,0,0-1.61-.42,2.4,2.4,0,0,0-2.28,1.4,7.86,7.86,0,0,0-.72,3.63Z"/><path d="M168.86,199.28l2.06-.44V189l-2.28-.44V186h6.56v12.85l2.05.44v2.56h-8.39Zm6.34-17.08h-4.28V179h4.28Z"/><path d="M190.25,201.84a7.14,7.14,0,0,1-.31-.81,6.39,6.39,0,0,1-.2-.84,6,6,0,0,1-1.86,1.42,5.53,5.53,0,0,1-2.49.54,5.2,5.2,0,0,1-3.7-1.27,4.43,4.43,0,0,1-1.37-3.45,3.91,3.91,0,0,1,1.79-3.44,9.31,9.31,0,0,1,5.24-1.22h2.18v-1.55a2.33,2.33,0,0,0-.66-1.77,2.72,2.72,0,0,0-2-.63,4.71,4.71,0,0,0-1.3.17,3.17,3.17,0,0,0-.92.4l-.28,1.7H181.2v-3.52a12.27,12.27,0,0,1,2.69-1.33,9.76,9.76,0,0,1,3.3-.54,7.55,7.55,0,0,1,4.79,1.44,4.92,4.92,0,0,1,1.83,4.11v6.55c0,.24,0,.47,0,.69a5.79,5.79,0,0,0,0,.61l1.31.18v2.56ZM186.54,199a3.69,3.69,0,0,0,1.76-.42,3.37,3.37,0,0,0,1.23-1V195.1h-2.18a3,3,0,0,0-2.07.64,2,2,0,0,0-.7,1.53,1.57,1.57,0,0,0,.52,1.26A2.14,2.14,0,0,0,186.54,199Z"/><path d="M203.28,182.11V186h2.78v3h-2.78v8.08a1.86,1.86,0,0,0,.38,1.31,1.32,1.32,0,0,0,1,.4,5.78,5.78,0,0,0,.77,0,5.94,5.94,0,0,0,.74-.12l.37,3.09a9.38,9.38,0,0,1-1.42.33,10.34,10.34,0,0,1-1.52.11,4.57,4.57,0,0,1-3.41-1.22,5.3,5.3,0,0,1-1.19-3.85V189h-2.33v-3H199v-3.88Z"/><path d="M217.24,202.15a7.1,7.1,0,0,1-5.47-2.2,7.83,7.83,0,0,1-2.06-5.58v-.59a8.63,8.63,0,0,1,1.95-5.81,7.23,7.23,0,0,1,10.18-.34,7.4,7.4,0,0,1,1.78,5.23v2.33h-9.47l0,.09a4.18,4.18,0,0,0,1,2.58,3.28,3.28,0,0,0,2.53,1,8.25,8.25,0,0,0,2.36-.29,10.89,10.89,0,0,0,2.05-.9l1.15,2.64a8.27,8.27,0,0,1-2.54,1.3A10.86,10.86,0,0,1,217.24,202.15ZM216.86,189a2.24,2.24,0,0,0-1.87.91,4.76,4.76,0,0,0-.85,2.39l0,.07h5.25V192a3.44,3.44,0,0,0-.64-2.17A2.32,2.32,0,0,0,216.86,189Z"/><polygon points="240 30.15 143.71 70.83 137.74 73.36 141.2 70.03 203.68 10 214.09 0 207.39 0 206.08 0 199.7 0 190.09 10 134.59 67.77 134.21 68.17 134.48 67.55 160.57 10 165.11 0 161.18 0 159.01 0 155.19 0 151.13 10 130.43 61 128.07 66.8 128.22 59.69 129.21 10 129.41 0 126.14 0 123.86 0 120.59 0 120.79 10 121.78 59.71 121.9 65.64 120.04 60.69 100.97 10 97.21 0 93.47 0 91.28 0 87.45 0 91.67 10 115.79 67.07 116.61 69.01 115.43 67.79 59.91 10 50.3 0 43.92 0 42.61 0 35.91 0 46.32 10 108.73 69.97 111.42 72.55 106.88 70.49 10 26.57 0 22.04 0 28.01 0 28.13 0 34 10 38.06 102.12 75.45 109.11 78.3 110.05 78.67 109.16 78.66 101.61 78.51 10 76.67 0 76.47 0 81.47 0 82.03 0 87.03 10 86.83 104.68 84.93 108.89 84.85 105.78 86.02 10 122.05 0 125.81 0 131.56 0 131.74 0 137.58 10 133.35 107.79 92.03 112.26 90.14 107.31 94.9 56.2 144 61.34 144 64.21 144 69.04 144 109.62 101.76 114.85 96.31 115.8 95.33 115.18 96.69 112.08 103.54 93.73 144 96.73 144 99.83 144 102.72 144 119.09 103.69 121.92 96.7 121.81 102.3 120.98 144 123.47 144 126.53 144 129.02 144 128.19 102.38 128.1 97.86 130.19 103.44 145.45 144 148.29 144 151.38 144 154.31 144 137.33 103.81 134.41 96.89 134.41 96.89 133.4 94.49 135.1 96.26 135.1 96.27 140.36 101.74 180.96 144 185.79 144 188.66 144 193.79 144 142.58 94.79 138.59 90.95 142.22 92.6 240 136.93 250 141.46 250 135.49 250 135.37 250 129.5 240 125.44 143.87 86.42 139.95 84.83 145.4 84.93 240 86.83 250 87.03 250 82.03 250 81.47 250 76.47 240 76.67 148.4 78.51 141.12 78.65 148.05 76.05 240 41.45 250 37.7 250 31.95 250 31.77 250 25.92 240 30.15" fill="#ff4d0f"/><rect x="10" y="10" width="230" height="134" fill="none"/><rect x="103.85" y="75.5" width="41.55" height="17.93" fill="#ff4d0f"/><path d="M142.38,70.64,133,73.78a1,1,0,0,1-1.26-1.27L135,63.17l-5.88-7.93a1,1,0,0,1,.82-1.59l9.87.15,5.72-8a1,1,0,0,1,1.77.28l2.91,9.44,9.41,3a1,1,0,0,1,.28,1.78l-8.08,5.67.1,9.87a1,1,0,0,1-1.6.81Z" fill="#fff"/><path d="M132,73.54a1,1,0,0,1-.24-1L135,63.17l-5.88-7.93a1,1,0,0,1,.82-1.59l9.87.15,5.72-8a1,1,0,0,1,1.52-.13,1,1,0,0,1,.25.41l2.91,9.44,9.41,3a1,1,0,0,1,.41.25,1,1,0,0,1-.13,1.53l-8.08,5.67.1,9.87a1,1,0,0,1-1.6.81l-7.89-5.92L133,73.78a1,1,0,0,1-1-.24m-5.31,5.31h0a8.46,8.46,0,0,0,8.72,2L141,79l4.74,3.56a8.5,8.5,0,0,0,13.6-6.88l-.06-5.93,4.85-3.41a8.5,8.5,0,0,0,1.13-13,8.56,8.56,0,0,0-3.47-2.1l-5.66-1.78-1.74-5.66a8.5,8.5,0,0,0-15-2.43l-3.44,4.83L130,46.15a8.5,8.5,0,0,0-7,13.56l3.53,4.77-1.92,5.6a8.46,8.46,0,0,0,2,8.77Z" fill="#ff4d0f"/><path d="M149.78,108.43l-4.39,8.84a1,1,0,0,1-1.79,0l-4.35-8.87L129.49,107a1,1,0,0,1-.55-1.71L136,98.38l-1.65-9.74a1,1,0,0,1,1.46-1l8.72,4.62,8.75-4.57a1,1,0,0,1,1.45,1.06l-1.69,9.72,7.05,6.91a1,1,0,0,1-.56,1.71Z" fill="#fff"/><path d="M144.5,117.83a1,1,0,0,1-.9-.56l-4.35-8.87L129.49,107a1,1,0,0,1-.55-1.71L136,98.38l-1.65-9.74a1,1,0,0,1,1-1.17,1.06,1.06,0,0,1,.47.12l8.72,4.62,8.75-4.57a1,1,0,0,1,.47-.12,1,1,0,0,1,1,1.18l-1.69,9.72,7.05,6.91a1,1,0,0,1-.56,1.71l-9.78,1.39-4.39,8.84a1,1,0,0,1-.89.56m0,7.5h0a8.45,8.45,0,0,0,7.61-4.72l2.64-5.31,5.87-.84A8.5,8.5,0,0,0,165.37,100l-4.24-4.15,1-5.84a8.5,8.5,0,0,0-12.31-9l-5.25,2.75L139.35,81a8.65,8.65,0,0,0-4-1A8.51,8.51,0,0,0,127,89.89l1,5.85-4.26,4.12a8.49,8.49,0,0,0,4.67,14.51l5.86.87,2.61,5.33a8.47,8.47,0,0,0,7.64,4.76Z" fill="#ff4d0f"/><path d="M107.62,70.64,117,73.78a1,1,0,0,0,1.26-1.27l-3.19-9.34,5.88-7.93a1,1,0,0,0-.82-1.59l-9.87.15-5.72-8a1,1,0,0,0-1.77.28l-2.91,9.44-9.41,3a1,1,0,0,0-.28,1.78l8.08,5.67-.1,9.87a1,1,0,0,0,1.6.81Z" fill="#fff"/><path d="M118,73.54a1,1,0,0,1-1,.24l-9.36-3.14-7.89,5.92a1,1,0,0,1-1.6-.81l.1-9.87-8.08-5.67A1,1,0,0,1,90,58.68a1,1,0,0,1,.41-.25l9.41-3L102.75,46a1,1,0,0,1,.25-.41,1,1,0,0,1,1.52.13l5.72,8,9.87-.15a1,1,0,0,1,.82,1.59l-5.88,7.93,3.19,9.34a1,1,0,0,1-.24,1m5.31,5.31a8.46,8.46,0,0,0,2-8.77l-1.92-5.6L127,59.71a8.5,8.5,0,0,0-7-13.56l-5.93.09-3.44-4.83a8.5,8.5,0,0,0-15,2.43L93.84,49.5l-5.66,1.78a8.56,8.56,0,0,0-3.47,2.1,8.5,8.5,0,0,0,1.13,13l4.85,3.41-.06,5.93a8.5,8.5,0,0,0,13.6,6.88L109,79l5.62,1.89a8.46,8.46,0,0,0,8.72-2Z" fill="#ff4d0f"/><path d="M100.22,108.43l4.39,8.84a1,1,0,0,0,1.79,0l4.35-8.87,9.76-1.44a1,1,0,0,0,.55-1.71L114,98.38l1.65-9.74a1,1,0,0,0-1.46-1l-8.72,4.62-8.75-4.57a1,1,0,0,0-1.45,1.06l1.69,9.72-7.05,6.91a1,1,0,0,0,.56,1.71Z" fill="#fff"/><path d="M105.5,117.83a1,1,0,0,1-.89-.56l-4.39-8.84L90.44,107a1,1,0,0,1-.56-1.71l7.05-6.91L95.24,88.7a1,1,0,0,1,1-1.18,1,1,0,0,1,.47.12l8.75,4.57,8.72-4.62a1.06,1.06,0,0,1,.47-.12,1,1,0,0,1,1,1.17L114,98.38l7.09,6.87a1,1,0,0,1-.55,1.71l-9.76,1.44-4.35,8.87a1,1,0,0,1-.9.56m0,7.5a8.47,8.47,0,0,0,7.64-4.76l2.61-5.33,5.86-.87a8.49,8.49,0,0,0,4.67-14.51L122,95.74l1-5.85A8.51,8.51,0,0,0,114.63,80a8.65,8.65,0,0,0-4,1l-5.24,2.78L100.16,81a8.5,8.5,0,0,0-12.31,9l1,5.84L84.63,100a8.5,8.5,0,0,0,4.75,14.48l5.87.84,2.64,5.31a8.45,8.45,0,0,0,7.61,4.72Z" fill="#ff4d0f"/></g></svg>