<svg xmlns="http://www.w3.org/2000/svg" viewBox="0 0 250 250"><title>Chinesepod_LEVEL_advanced</title><g id="Layer_1" data-name="Layer 1"><path d="M0,0V250H250V0Z" fill="#fff"/><path d="M250,0H0V250H250V0Z" fill="#89006b" opacity="0.2"/><rect x="10" y="144" width="230" height="96" fill="#fff"/><path d="M0,0V250H250V0ZM240,240H10V10H240Z" fill="#89006b"/><path d="M49.8,199.28l1.53-.22,6.49-18.55H62.2l6.44,18.55,1.52.22v2.56H62.9v-2.56l1.48-.27-.94-2.93H56.53L55.59,199l1.48.27v2.56H49.8Zm7.74-6.34h4.89L60,185.42h-.09Z"/><path d="M83.49,199.91a5.29,5.29,0,0,1-1.77,1.67,4.67,4.67,0,0,1-2.32.57A5.37,5.37,0,0,1,74.85,200a9.13,9.13,0,0,1-1.62-5.65v-.31A10.22,10.22,0,0,1,74.86,188a5.28,5.28,0,0,1,4.57-2.3,4.37,4.37,0,0,1,2.14.52,5.39,5.39,0,0,1,1.67,1.47V182L81,181.57V179h6.56v19.85l2.06.44v2.56H83.81Zm-6-5.55a6.46,6.46,0,0,0,.7,3.27,2.41,2.41,0,0,0,2.27,1.19,3.25,3.25,0,0,0,1.63-.38,3,3,0,0,0,1.13-1.1v-6.72a3.35,3.35,0,0,0-1.12-1.18,3,3,0,0,0-1.61-.42,2.4,2.4,0,0,0-2.28,1.4,7.86,7.86,0,0,0-.72,3.63Z"/><path d="M99.15,188.57l-1.49.28,2.09,7.09.28,1.49h.09l.31-1.49,2.06-7.08-1.52-.29V186h7.19v2.58l-1.38.22-4.67,13.05H98l-4.68-13.05L92,188.57V186h7.19Z"/><path d="M120.9,201.84a7.14,7.14,0,0,1-.31-.81,6.45,6.45,0,0,1-.21-.84,5.93,5.93,0,0,1-1.85,1.42,5.57,5.57,0,0,1-2.5.54,5.23,5.23,0,0,1-3.7-1.27,4.47,4.47,0,0,1-1.37-3.45,3.93,3.93,0,0,1,1.79-3.44,9.34,9.34,0,0,1,5.25-1.22h2.18v-1.55a2.33,2.33,0,0,0-.66-1.77,2.72,2.72,0,0,0-2-.63,4.66,4.66,0,0,0-1.3.17,3.37,3.37,0,0,0-.93.4l-.27,1.7h-3.23l0-3.52a12,12,0,0,1,2.69-1.33,9.76,9.76,0,0,1,3.3-.54,7.52,7.52,0,0,1,4.78,1.44,4.9,4.9,0,0,1,1.84,4.11v6.55c0,.24,0,.47,0,.69a4,4,0,0,0,0,.61l1.3.18v2.56ZM117.19,199a3.72,3.72,0,0,0,1.76-.42,3.54,3.54,0,0,0,1.23-1V195.1H118a3,3,0,0,0-2.07.64,2,2,0,0,0-.7,1.53,1.57,1.57,0,0,0,.52,1.26A2.11,2.11,0,0,0,117.19,199Z"/><path d="M128.55,199.28l2-.44V189l-2.27-.44V186h6.25l.19,2.27a5.85,5.85,0,0,1,1.95-1.89,5.05,5.05,0,0,1,2.59-.67,4.73,4.73,0,0,1,3.75,1.51,6.94,6.94,0,0,1,1.35,4.73v6.9l2.05.44v2.56h-8.17v-2.56l1.83-.44V192a3.21,3.21,0,0,0-.64-2.26,2.62,2.62,0,0,0-1.95-.67,3.32,3.32,0,0,0-1.53.35,3.07,3.07,0,0,0-1.12,1v8.5l1.72.44v2.56h-8Z"/><path d="M156.62,198.87a2.5,2.5,0,0,0,1.83-.67,2.36,2.36,0,0,0,.69-1.78H163l0,.09a4.94,4.94,0,0,1-1.8,4,7.61,7.61,0,0,1-10.09-.62,8.56,8.56,0,0,1-1.92-5.76v-.44a8.43,8.43,0,0,1,2-5.76,7.06,7.06,0,0,1,5.62-2.25,9.81,9.81,0,0,1,3.44.57,6.83,6.83,0,0,1,2.53,1.61l.06,4.23h-3.47l-.7-2.47a2.58,2.58,0,0,0-.8-.46,2.9,2.9,0,0,0-1.06-.19,2.7,2.7,0,0,0-2.57,1.32,6.82,6.82,0,0,0-.75,3.4v.44a7.26,7.26,0,0,0,.69,3.42A2.5,2.5,0,0,0,156.62,198.87Z"/><path d="M174.07,202.15a7.14,7.14,0,0,1-5.48-2.2,7.87,7.87,0,0,1-2.05-5.58v-.59a8.68,8.68,0,0,1,1.94-5.81,7.24,7.24,0,0,1,10.19-.34,7.45,7.45,0,0,1,1.77,5.23v2.33H171l0,.09a4.18,4.18,0,0,0,1.05,2.58,3.28,3.28,0,0,0,2.53,1,8.18,8.18,0,0,0,2.35-.29,11,11,0,0,0,2.06-.9l1.15,2.64a8.27,8.27,0,0,1-2.54,1.3A10.86,10.86,0,0,1,174.07,202.15ZM173.69,189a2.24,2.24,0,0,0-1.87.91,4.66,4.66,0,0,0-.85,2.39l0,.07h5.24V192a3.44,3.44,0,0,0-.63-2.17A2.32,2.32,0,0,0,173.69,189Z"/><path d="M194.28,199.91a5.29,5.29,0,0,1-1.77,1.67,4.67,4.67,0,0,1-2.32.57,5.37,5.37,0,0,1-4.55-2.14,9.13,9.13,0,0,1-1.62-5.65v-.31a10.29,10.29,0,0,1,1.63-6.05,5.28,5.28,0,0,1,4.57-2.3,4.37,4.37,0,0,1,2.14.52,5.39,5.39,0,0,1,1.67,1.47V182l-2.29-.44V179h6.57v19.85l2.05.44v2.56H194.6Zm-6-5.55a6.46,6.46,0,0,0,.7,3.27,2.42,2.42,0,0,0,2.28,1.19,3.23,3.23,0,0,0,1.62-.38,3,3,0,0,0,1.13-1.1v-6.72a3.26,3.26,0,0,0-1.12-1.18,3,3,0,0,0-1.61-.42,2.4,2.4,0,0,0-2.28,1.4,7.86,7.86,0,0,0-.72,3.63Z"/><polygon points="240 30.15 143.71 70.83 137.74 73.36 141.2 70.03 203.68 10 214.09 0 207.39 0 206.08 0 199.7 0 190.09 10 134.59 67.77 134.21 68.17 134.48 67.55 160.57 10 165.11 0 161.18 0 159.01 0 155.19 0 151.13 10 130.43 61 128.07 66.8 128.22 59.69 129.21 10 129.41 0 126.14 0 123.86 0 120.59 0 120.79 10 121.78 59.71 121.9 65.64 120.04 60.69 100.97 10 97.21 0 93.47 0 91.28 0 87.45 0 91.67 10 115.79 67.07 116.61 69.01 115.43 67.79 59.91 10 50.3 0 43.92 0 42.61 0 35.91 0 46.32 10 108.73 69.97 111.42 72.55 106.88 70.49 10 26.57 0 22.04 0 28.01 0 28.13 0 34 10 38.06 102.12 75.45 109.11 78.3 110.05 78.67 109.16 78.66 101.61 78.51 10 76.67 0 76.47 0 81.47 0 82.03 0 87.03 10 86.83 104.68 84.93 108.89 84.85 105.78 86.02 10 122.05 0 125.81 0 131.56 0 131.74 0 137.58 10 133.35 107.79 92.03 112.26 90.14 107.31 94.9 56.2 144 61.34 144 64.21 144 69.04 144 109.62 101.76 114.85 96.31 115.8 95.33 115.18 96.69 112.08 103.54 93.73 144 96.73 144 99.83 144 102.72 144 119.09 103.69 121.92 96.7 121.81 102.3 120.98 144 123.47 144 126.53 144 129.02 144 128.19 102.38 128.1 97.86 130.19 103.44 145.45 144 148.29 144 151.38 144 154.31 144 137.33 103.81 134.41 96.89 134.41 96.89 133.4 94.49 135.1 96.26 135.1 96.27 140.36 101.74 180.96 144 185.79 144 188.66 144 193.79 144 142.58 94.79 138.59 90.95 142.22 92.6 240 136.93 250 141.46 250 135.49 250 135.37 250 129.5 240 125.44 143.87 86.42 139.95 84.83 145.4 84.93 240 86.83 250 87.03 250 82.03 250 81.47 250 76.47 240 76.67 148.4 78.51 141.12 78.65 148.05 76.05 240 41.45 250 37.7 250 31.95 250 31.77 250 25.92 240 30.15" fill="#89006b"/><rect x="10" y="10" width="230" height="134" fill="none"/><rect x="85.63" y="54.85" width="78.05" height="61.57" fill="#89006b"/><path d="M119.16,53.77l4.4-8.84a1,1,0,0,1,1.79,0l4.35,8.87,9.76,1.44A1,1,0,0,1,140,57l-7.09,6.87,1.64,9.73a1,1,0,0,1-1.45,1L124.39,70l-8.75,4.57a1,1,0,0,1-1.45-1.06l1.69-9.73-7-6.91a1,1,0,0,1,.56-1.7Z" fill="#fff"/><path d="M124.45,44.37a1,1,0,0,1,.9.56l4.35,8.87,9.76,1.44A1,1,0,0,1,140,57l-7.09,6.87,1.64,9.73a1,1,0,0,1-1,1.17.91.91,0,0,1-.47-.12L124.39,70l-8.75,4.57a1,1,0,0,1-.47.11,1,1,0,0,1-1-1.17l1.69-9.73-7-6.91a1,1,0,0,1,.56-1.7l9.77-1.39,4.4-8.84a1,1,0,0,1,.89-.56m0-7.5h0a8.45,8.45,0,0,0-7.61,4.72L114.2,46.9l-5.87.84a8.5,8.5,0,0,0-4.75,14.48l4.24,4.15-1,5.84a8.51,8.51,0,0,0,12.31,9l5.25-2.75,5.24,2.77A8.5,8.5,0,0,0,142,72.31l-1-5.85,4.26-4.13a8.5,8.5,0,0,0-4.67-14.51L134.69,47l-2.6-5.32a8.47,8.47,0,0,0-7.64-4.76Z" fill="#89006b"/><path d="M79.91,53.77l4.4-8.84a1,1,0,0,1,1.79,0l4.35,8.87,9.76,1.44a1,1,0,0,1,.55,1.71l-7.09,6.87,1.64,9.73a1,1,0,0,1-1.45,1L85.14,70l-8.75,4.57a1,1,0,0,1-1.45-1.06l1.69-9.73-7-6.91a1,1,0,0,1,.56-1.7Z" fill="#fff"/><path d="M85.2,44.37a1,1,0,0,1,.9.56l4.35,8.87,9.76,1.44a1,1,0,0,1,.55,1.71l-7.09,6.87,1.64,9.73a1,1,0,0,1-1,1.17.91.91,0,0,1-.47-.12L85.14,70l-8.75,4.57a1,1,0,0,1-.47.11,1,1,0,0,1-1-1.17l1.69-9.73-7-6.91a1,1,0,0,1,.56-1.7l9.77-1.39,4.4-8.84a1,1,0,0,1,.89-.56m0-7.5h0a8.45,8.45,0,0,0-7.61,4.72L75,46.9l-5.87.84a8.5,8.5,0,0,0-4.75,14.48l4.24,4.15-1,5.84a8.51,8.51,0,0,0,12.31,9l5.25-2.75,5.24,2.77a8.5,8.5,0,0,0,12.36-8.92l-1-5.85L106,62.33a8.5,8.5,0,0,0-4.67-14.51L95.44,47l-2.6-5.32a8.47,8.47,0,0,0-7.64-4.76Z" fill="#89006b"/><path d="M79.91,91.62l4.4-8.84a1,1,0,0,1,1.79,0l4.35,8.87,9.76,1.44a1,1,0,0,1,.55,1.71l-7.09,6.87,1.64,9.74a1,1,0,0,1-1.45,1l-8.72-4.62-8.75,4.57a1,1,0,0,1-1.45-1.06l1.69-9.72-7-6.91A1,1,0,0,1,70.14,93Z" fill="#fff"/><path d="M85.2,82.22a1,1,0,0,1,.9.56l4.35,8.87,9.76,1.44a1,1,0,0,1,.55,1.71l-7.09,6.87,1.64,9.74a1,1,0,0,1-1,1.16,1,1,0,0,1-.47-.11l-8.72-4.62-8.75,4.57a1,1,0,0,1-.47.11,1,1,0,0,1-1-1.17l1.69-9.72-7-6.91A1,1,0,0,1,70.14,93l9.77-1.39,4.4-8.84a1,1,0,0,1,.89-.56m0-7.5h0a8.45,8.45,0,0,0-7.61,4.72L75,84.75l-5.87.84a8.5,8.5,0,0,0-4.75,14.48l4.24,4.15-1,5.84a8.51,8.51,0,0,0,12.31,9l5.25-2.75,5.24,2.77a8.5,8.5,0,0,0,12.36-8.92l-1-5.85,4.26-4.12a8.5,8.5,0,0,0-4.67-14.52l-5.87-.86-2.6-5.33a8.47,8.47,0,0,0-7.64-4.76Z" fill="#89006b"/><path d="M158.41,53.77l4.4-8.84a1,1,0,0,1,1.79,0L169,53.8l9.76,1.44a1,1,0,0,1,.55,1.71l-7.09,6.87,1.64,9.73a1,1,0,0,1-1.45,1L163.64,70l-8.75,4.57a1,1,0,0,1-1.45-1.06l1.69-9.73-7-6.91a1,1,0,0,1,.56-1.7Z" fill="#fff"/><path d="M163.7,44.37a1,1,0,0,1,.9.56L169,53.8l9.76,1.44a1,1,0,0,1,.55,1.71l-7.09,6.87,1.64,9.73a1,1,0,0,1-1,1.17.91.91,0,0,1-.47-.12L163.64,70l-8.75,4.57a1,1,0,0,1-.47.11,1,1,0,0,1-1-1.17l1.69-9.73-7-6.91a1,1,0,0,1,.56-1.7l9.77-1.39,4.4-8.84a1,1,0,0,1,.89-.56m0-7.5h0a8.45,8.45,0,0,0-7.61,4.72l-2.64,5.31-5.87.84a8.5,8.5,0,0,0-4.75,14.48l4.24,4.15-1,5.84a8.51,8.51,0,0,0,12.31,9l5.25-2.75,5.24,2.77a8.5,8.5,0,0,0,12.36-8.92l-1-5.85,4.26-4.13a8.5,8.5,0,0,0-4.67-14.51L173.94,47l-2.6-5.32a8.47,8.47,0,0,0-7.64-4.76Z" fill="#89006b"/><path d="M158.41,91.62l4.4-8.84a1,1,0,0,1,1.79,0L169,91.65l9.76,1.44a1,1,0,0,1,.55,1.71l-7.09,6.87,1.64,9.74a1,1,0,0,1-1.45,1l-8.72-4.62-8.75,4.57a1,1,0,0,1-1.45-1.06l1.69-9.72-7-6.91a1,1,0,0,1,.56-1.71Z" fill="#fff"/><path d="M163.7,82.22a1,1,0,0,1,.9.56L169,91.65l9.76,1.44a1,1,0,0,1,.55,1.71l-7.09,6.87,1.64,9.74a1,1,0,0,1-1,1.16,1,1,0,0,1-.47-.11l-8.72-4.62-8.75,4.57a1,1,0,0,1-.47.11,1,1,0,0,1-1-1.17l1.69-9.72-7-6.91a1,1,0,0,1,.56-1.71l9.77-1.39,4.4-8.84a1,1,0,0,1,.89-.56m0-7.5h0a8.45,8.45,0,0,0-7.61,4.72l-2.64,5.31-5.87.84a8.5,8.5,0,0,0-4.75,14.48l4.24,4.15-1,5.84a8.51,8.51,0,0,0,12.31,9l5.25-2.75,5.24,2.77a8.5,8.5,0,0,0,12.36-8.92l-1-5.85,4.26-4.12a8.5,8.5,0,0,0-4.67-14.52l-5.87-.86-2.6-5.33a8.47,8.47,0,0,0-7.64-4.76Z" fill="#89006b"/><path d="M119.16,91.62l4.4-8.84a1,1,0,0,1,1.79,0l4.35,8.87,9.76,1.44A1,1,0,0,1,140,94.8l-7.09,6.87,1.64,9.74a1,1,0,0,1-1.45,1l-8.72-4.62-8.75,4.57a1,1,0,0,1-1.45-1.06l1.69-9.72-7-6.91a1,1,0,0,1,.56-1.71Z" fill="#fff"/><path d="M124.45,82.22a1,1,0,0,1,.9.56l4.35,8.87,9.76,1.44A1,1,0,0,1,140,94.8l-7.09,6.87,1.64,9.74a1,1,0,0,1-1,1.16,1,1,0,0,1-.47-.11l-8.72-4.62-8.75,4.57a1,1,0,0,1-.47.11,1,1,0,0,1-1-1.17l1.69-9.72-7-6.91a1,1,0,0,1,.56-1.71l9.77-1.39,4.4-8.84a1,1,0,0,1,.89-.56m0-7.5h0a8.45,8.45,0,0,0-7.61,4.72l-2.64,5.31-5.87.84a8.5,8.5,0,0,0-4.75,14.48l4.24,4.15-1,5.84a8.51,8.51,0,0,0,12.31,9l5.25-2.75,5.24,2.77A8.5,8.5,0,0,0,142,110.16l-1-5.85,4.26-4.12a8.5,8.5,0,0,0-4.67-14.52l-5.87-.86-2.6-5.33a8.47,8.47,0,0,0-7.64-4.76Z" fill="#89006b"/></g></svg>