<svg xmlns="http://www.w3.org/2000/svg" viewBox="0 0 250 250"><title>Chinesepod_LEVEL_upper-intermediate</title><g id="Layer_1" data-name="Layer 1"><path d="M0,0V250H250V0Z" fill="#fff"/><path d="M250,0H0V250H250V0Z" fill="#e1001e" opacity="0.2"/><rect x="10" y="144" width="230" height="96" fill="#fff"/><path d="M0,0V250H250V0ZM240,240H10V10H240Z" fill="#e1001e"/><polygon points="240 30.15 143.71 70.83 137.74 73.36 141.2 70.03 203.68 10 214.09 0 207.39 0 206.08 0 199.7 0 190.09 10 134.59 67.77 134.21 68.17 134.48 67.55 160.57 10 165.11 0 161.18 0 159.01 0 155.19 0 151.13 10 130.43 61 128.07 66.8 128.22 59.69 129.21 10 129.41 0 126.14 0 123.86 0 120.59 0 120.79 10 121.78 59.71 121.9 65.64 120.04 60.69 100.97 10 97.21 0 93.47 0 91.28 0 87.45 0 91.67 10 115.79 67.07 116.61 69.01 115.43 67.79 59.91 10 50.3 0 43.92 0 42.61 0 35.91 0 46.32 10 108.73 69.97 111.42 72.55 106.88 70.49 10 26.57 0 22.04 0 28.01 0 28.13 0 34 10 38.06 102.12 75.45 109.11 78.3 110.05 78.67 109.16 78.66 101.61 78.51 10 76.67 0 76.47 0 81.47 0 82.03 0 87.03 10 86.83 104.68 84.93 108.89 84.85 105.78 86.02 10 122.05 0 125.81 0 131.56 0 131.74 0 137.58 10 133.35 107.79 92.03 112.26 90.14 107.31 94.9 56.2 144 61.34 144 64.21 144 69.04 144 109.62 101.76 114.85 96.31 115.8 95.33 115.18 96.69 112.08 103.54 93.73 144 96.73 144 99.83 144 102.72 144 119.09 103.69 121.92 96.7 121.81 102.3 120.98 144 123.47 144 126.53 144 129.02 144 128.19 102.38 128.1 97.86 130.19 103.44 145.45 144 148.29 144 151.38 144 154.31 144 137.33 103.81 134.41 96.89 134.41 96.89 133.4 94.49 135.1 96.26 135.1 96.27 140.36 101.74 180.96 144 185.79 144 188.66 144 193.79 144 142.58 94.79 138.59 90.95 142.22 92.6 240 136.93 250 141.46 250 135.49 250 135.37 250 129.5 240 125.44 143.87 86.42 139.95 84.83 145.4 84.93 240 86.83 250 87.03 250 82.03 250 81.47 250 76.47 240 76.67 148.4 78.51 141.12 78.65 148.05 76.05 240 41.45 250 37.7 250 31.95 250 31.77 250 25.92 240 30.15" fill="#e1001e"/><rect x="10" y="10" width="230" height="134" fill="none"/><path d="M87.61,162.49v2.58l-2.29.44v11.13a4.08,4.08,0,0,0,1.14,3.16,4.39,4.39,0,0,0,3.11,1,4.52,4.52,0,0,0,3.15-1,4.09,4.09,0,0,0,1.14-3.17V165.51l-2.27-.44v-2.58h8.83v2.58l-2.28.44v11.13a6.76,6.76,0,0,1-2.37,5.54,10.8,10.8,0,0,1-12.38,0A6.81,6.81,0,0,1,81,176.64V165.51l-2.27-.44v-2.58h8.84Z"/><path d="M103,170.55V168h6.21l.21,1.85a5,5,0,0,1,1.68-1.58,4.49,4.49,0,0,1,2.29-.56,5.29,5.29,0,0,1,4.57,2.3,10.29,10.29,0,0,1,1.62,6.05v.31a9.11,9.11,0,0,1-1.62,5.65,5.38,5.38,0,0,1-4.54,2.14,5,5,0,0,1-2.21-.46,4.52,4.52,0,0,1-1.66-1.36v4.59l2.07.44v2.58h-8.4v-2.58l2.07-.44V171ZM115.27,176a7.59,7.59,0,0,0-.75-3.63,2.44,2.44,0,0,0-2.28-1.4,3.25,3.25,0,0,0-1.65.4,2.74,2.74,0,0,0-1.08,1.13v6.94a2.61,2.61,0,0,0,1.08,1,3.65,3.65,0,0,0,1.67.35,2.46,2.46,0,0,0,2.28-1.22,6.34,6.34,0,0,0,.73-3.29Z"/><path d="M122.63,170.55V168h6.21l.2,1.85a5,5,0,0,1,1.69-1.58,4.43,4.43,0,0,1,2.28-.56,5.27,5.27,0,0,1,4.57,2.3,10.22,10.22,0,0,1,1.63,6.05v.31a9,9,0,0,1-1.63,5.65,5.35,5.35,0,0,1-4.54,2.14,5,5,0,0,1-2.21-.46,4.6,4.6,0,0,1-1.66-1.36v4.59l2.07.44v2.58h-8.39v-2.58l2.06-.44V171Zm12.3,5.48a7.59,7.59,0,0,0-.75-3.63,2.43,2.43,0,0,0-2.28-1.4,3.28,3.28,0,0,0-1.65.4,2.87,2.87,0,0,0-1.08,1.13v6.94a2.74,2.74,0,0,0,1.08,1,3.7,3.7,0,0,0,1.68.35,2.48,2.48,0,0,0,2.28-1.22,6.45,6.45,0,0,0,.72-3.29Z"/><path d="M150.2,184.13a7.14,7.14,0,0,1-5.48-2.2,7.87,7.87,0,0,1-2.05-5.58v-.58a8.68,8.68,0,0,1,1.94-5.82,7.24,7.24,0,0,1,10.19-.34,7.46,7.46,0,0,1,1.77,5.23v2.33h-9.46l0,.09a4.18,4.18,0,0,0,1,2.58,3.28,3.28,0,0,0,2.53,1,8.18,8.18,0,0,0,2.35-.29,10.61,10.61,0,0,0,2.05-.9l1.16,2.64a8.27,8.27,0,0,1-2.54,1.3A10.86,10.86,0,0,1,150.2,184.13ZM149.82,171a2.21,2.21,0,0,0-1.87.9,4.66,4.66,0,0,0-.85,2.39l0,.07h5.24V174a3.45,3.45,0,0,0-.63-2.17A2.31,2.31,0,0,0,149.82,171Z"/><path d="M160.42,181.26l2.05-.44V171l-2.27-.44V168h6.25l.19,2.32a5,5,0,0,1,1.44-1.92,3.18,3.18,0,0,1,2-.69,5.78,5.78,0,0,1,.71,0,5.28,5.28,0,0,1,.63.13l-.46,3.89-1.75,0a3.05,3.05,0,0,0-1.56.36,2.35,2.35,0,0,0-.93,1v7.71l2.05.44v2.56h-8.38Z"/><path d="M26.09,201.07v-2.58h8.83v2.58l-2.28.44v15.31l2.28.44v2.56H26.09v-2.56l2.29-.44V201.51Z"/><path d="M37.92,217.26l2-.44V207l-2.27-.44V204H44l.19,2.27a5.85,5.85,0,0,1,2-1.89,5.05,5.05,0,0,1,2.59-.67,4.73,4.73,0,0,1,3.75,1.51,6.94,6.94,0,0,1,1.35,4.73v6.9l2,.44v2.56H47.66v-2.56l1.83-.44v-6.89a3.21,3.21,0,0,0-.64-2.26,2.62,2.62,0,0,0-2-.67,3.32,3.32,0,0,0-1.53.35,3.07,3.07,0,0,0-1.12,1v8.5l1.72.44v2.56h-8Z"/><path d="M65,200.09V204h2.78v3H65v8.07a1.86,1.86,0,0,0,.38,1.31,1.33,1.33,0,0,0,1,.4,5.78,5.78,0,0,0,.77,0,5.94,5.94,0,0,0,.74-.12l.37,3.09a9.38,9.38,0,0,1-1.42.33,10.34,10.34,0,0,1-1.52.11,4.57,4.57,0,0,1-3.41-1.22,5.3,5.3,0,0,1-1.19-3.85V207H58.42v-3h2.33v-3.88Z"/><path d="M79,220.13a7.1,7.1,0,0,1-5.47-2.2,7.83,7.83,0,0,1-2-5.58v-.58A8.63,8.63,0,0,1,73.39,206a7.23,7.23,0,0,1,10.18-.34,7.42,7.42,0,0,1,1.78,5.23v2.33H75.88l0,.09a4.18,4.18,0,0,0,1.05,2.58,3.28,3.28,0,0,0,2.53,1,8.25,8.25,0,0,0,2.36-.29,10.89,10.89,0,0,0,2-.9L85,218.3a8.45,8.45,0,0,1-2.55,1.3A10.86,10.86,0,0,1,79,220.13ZM78.59,207a2.23,2.23,0,0,0-1.87.9,4.76,4.76,0,0,0-.85,2.39l0,.07h5.25V210a3.46,3.46,0,0,0-.64-2.17A2.3,2.3,0,0,0,78.59,207Z"/><path d="M89.19,217.26l2-.44V207L89,206.55V204h6.26l.19,2.32a5,5,0,0,1,1.43-1.92,3.23,3.23,0,0,1,2-.69,6.07,6.07,0,0,1,.71,0,5.07,5.07,0,0,1,.62.13l-.45,3.89-1.76,0a3,3,0,0,0-1.55.36,2.37,2.37,0,0,0-.94,1v7.71l2,.44v2.56H89.19Z"/><path d="M102.5,206.55V204h6.25l.18,2.1a5.38,5.38,0,0,1,1.91-1.77,5.56,5.56,0,0,1,2.66-.62,4.87,4.87,0,0,1,2.61.67,4.23,4.23,0,0,1,1.64,2,5.43,5.43,0,0,1,1.9-2,5.15,5.15,0,0,1,2.75-.72,4.55,4.55,0,0,1,3.7,1.62,7.52,7.52,0,0,1,1.36,4.93v6.59l2.06.44v2.56h-8.19v-2.56l1.85-.44v-6.61a3.93,3.93,0,0,0-.59-2.5,2.13,2.13,0,0,0-1.74-.71,2.91,2.91,0,0,0-2.64,1.53c0,.18,0,.34,0,.47s0,.27,0,.41v7.41l1.73.44v2.56h-7.72v-2.56l1.73-.44v-6.61a4,4,0,0,0-.58-2.48,2.16,2.16,0,0,0-1.76-.73,3.34,3.34,0,0,0-1.52.33,3,3,0,0,0-1.08.93v8.56l1.85.44v2.56h-8.17v-2.56l2.06-.44V207Z"/><path d="M139.84,220.13a7.14,7.14,0,0,1-5.48-2.2,7.87,7.87,0,0,1-2.05-5.58v-.58a8.68,8.68,0,0,1,1.94-5.82,7.24,7.24,0,0,1,10.19-.34,7.46,7.46,0,0,1,1.77,5.23v2.33h-9.46l0,.09a4.18,4.18,0,0,0,1.05,2.58,3.28,3.28,0,0,0,2.53,1,8.18,8.18,0,0,0,2.35-.29,10.61,10.61,0,0,0,2-.9l1.16,2.64a8.27,8.27,0,0,1-2.54,1.3A10.86,10.86,0,0,1,139.84,220.13ZM139.46,207a2.21,2.21,0,0,0-1.87.9,4.66,4.66,0,0,0-.85,2.39l0,.07H142V210a3.45,3.45,0,0,0-.63-2.17A2.31,2.31,0,0,0,139.46,207Z"/><path d="M160.05,217.89a5.29,5.29,0,0,1-1.77,1.67,4.67,4.67,0,0,1-2.32.57,5.37,5.37,0,0,1-4.55-2.14,9.11,9.11,0,0,1-1.62-5.65V212a10.29,10.29,0,0,1,1.63-6.05,5.28,5.28,0,0,1,4.57-2.3,4.37,4.37,0,0,1,2.14.52,5.39,5.39,0,0,1,1.67,1.47V200l-2.29-.44V197h6.57v19.85l2,.44v2.56h-5.76Zm-6-5.55a6.43,6.43,0,0,0,.7,3.27A2.41,2.41,0,0,0,157,216.8a3.25,3.25,0,0,0,1.63-.38,3,3,0,0,0,1.13-1.1V208.6a3.26,3.26,0,0,0-1.12-1.18,3,3,0,0,0-1.61-.42,2.4,2.4,0,0,0-2.28,1.4,7.86,7.86,0,0,0-.72,3.63Z"/><path d="M168.86,217.26l2.06-.44V207l-2.28-.44V204h6.56v12.85l2.05.44v2.56h-8.39Zm6.34-17.08h-4.28V197h4.28Z"/><path d="M190.25,219.82a7.14,7.14,0,0,1-.31-.81,6.39,6.39,0,0,1-.2-.84,6,6,0,0,1-1.86,1.42,5.53,5.53,0,0,1-2.49.54,5.2,5.2,0,0,1-3.7-1.27,4.43,4.43,0,0,1-1.37-3.45,3.91,3.91,0,0,1,1.79-3.44,9.31,9.31,0,0,1,5.24-1.22h2.18V209.2a2.33,2.33,0,0,0-.66-1.77,2.72,2.72,0,0,0-2-.63,4.71,4.71,0,0,0-1.3.17,3.17,3.17,0,0,0-.92.4l-.28,1.7H181.2v-3.52a12.27,12.27,0,0,1,2.69-1.33,9.76,9.76,0,0,1,3.3-.54,7.55,7.55,0,0,1,4.79,1.44,4.92,4.92,0,0,1,1.83,4.11v6.55c0,.24,0,.47,0,.69a5.79,5.79,0,0,0,0,.61l1.31.18v2.56ZM186.54,217a3.69,3.69,0,0,0,1.76-.42,3.37,3.37,0,0,0,1.23-1.05v-2.42h-2.18a3,3,0,0,0-2.07.64,2,2,0,0,0-.7,1.53,1.57,1.57,0,0,0,.52,1.26A2.14,2.14,0,0,0,186.54,217Z"/><path d="M203.28,200.09V204h2.78v3h-2.78v8.07a1.86,1.86,0,0,0,.38,1.31,1.32,1.32,0,0,0,1,.4,5.78,5.78,0,0,0,.77,0,5.94,5.94,0,0,0,.74-.12l.37,3.09a9.38,9.38,0,0,1-1.42.33,10.34,10.34,0,0,1-1.52.11,4.57,4.57,0,0,1-3.41-1.22,5.3,5.3,0,0,1-1.19-3.85V207h-2.33v-3H199v-3.88Z"/><path d="M217.24,220.13a7.1,7.1,0,0,1-5.47-2.2,7.83,7.83,0,0,1-2.06-5.58v-.58a8.64,8.64,0,0,1,1.95-5.82,7.23,7.23,0,0,1,10.18-.34,7.42,7.42,0,0,1,1.78,5.23v2.33h-9.47l0,.09a4.18,4.18,0,0,0,1,2.58,3.28,3.28,0,0,0,2.53,1,8.25,8.25,0,0,0,2.36-.29,10.89,10.89,0,0,0,2.05-.9l1.15,2.64a8.27,8.27,0,0,1-2.54,1.3A10.86,10.86,0,0,1,217.24,220.13ZM216.86,207a2.23,2.23,0,0,0-1.87.9,4.76,4.76,0,0,0-.85,2.39l0,.07h5.25V210a3.46,3.46,0,0,0-.64-2.17A2.31,2.31,0,0,0,216.86,207Z"/><polygon points="164.13 110.79 124.88 110.79 114.91 61.2 164.13 72.67 164.13 110.79" fill="#e1001e"/><path d="M159,86l4.39-8.84a1,1,0,0,1,1.8,0L169.52,86l9.77,1.44a1,1,0,0,1,.55,1.71L172.75,96l1.64,9.74a1,1,0,0,1-1.45,1l-8.73-4.62-8.75,4.57a1,1,0,0,1-1.45-1.06l1.7-9.72-7.05-6.91a1,1,0,0,1,.56-1.71Z" fill="#fff"/><path d="M164.28,76.59a1,1,0,0,1,.9.56L169.52,86l9.77,1.44a1,1,0,0,1,.55,1.71L172.75,96l1.64,9.74a1,1,0,0,1-1,1.16,1,1,0,0,1-.47-.11l-8.73-4.62-8.75,4.57a1,1,0,0,1-.46.11,1,1,0,0,1-1-1.17l1.7-9.72-7.05-6.91a1,1,0,0,1,.56-1.71L159,86l4.39-8.84a1,1,0,0,1,.9-.56m0-7.5h0a8.44,8.44,0,0,0-7.61,4.72L154,79.12l-5.87.84a8.49,8.49,0,0,0-4.75,14.48l4.23,4.15-1,5.84a8.49,8.49,0,0,0,8.37,10,8.62,8.62,0,0,0,3.94-1l5.25-2.75,5.24,2.77a8.5,8.5,0,0,0,12.36-8.92l-1-5.85,4.26-4.12A8.51,8.51,0,0,0,180.39,80l-5.87-.86-2.61-5.33a8.45,8.45,0,0,0-7.63-4.76Z" fill="#e1001e"/><path d="M139.5,56.45l4.39-8.84a1,1,0,0,1,1.79,0L150,56.48l9.76,1.45a1,1,0,0,1,.55,1.7l-7.09,6.87,1.65,9.74a1,1,0,0,1-1.46,1.05l-8.72-4.62L136,77.24a1,1,0,0,1-1.45-1.06l1.69-9.72-7.05-6.91a1,1,0,0,1,.56-1.71Z" fill="#fff"/><path d="M144.78,47.06a1,1,0,0,1,.9.56L150,56.48l9.76,1.45a1,1,0,0,1,.55,1.7l-7.09,6.87,1.65,9.74a1,1,0,0,1-1,1.17,1.06,1.06,0,0,1-.47-.12l-8.72-4.62L136,77.24a1,1,0,0,1-.47.12,1,1,0,0,1-1-1.18l1.69-9.72-7.05-6.91a1,1,0,0,1,.56-1.71l9.78-1.39,4.39-8.84a1,1,0,0,1,.89-.55m0-7.5h0a8.44,8.44,0,0,0-7.61,4.71l-2.64,5.31-5.87.84a8.5,8.5,0,0,0-4.75,14.48l4.24,4.15-1,5.84a8.5,8.5,0,0,0,12.31,9l5.25-2.75,5.24,2.78a8.65,8.65,0,0,0,4,1A8.5,8.5,0,0,0,162.29,75l-1-5.85L165.56,65a8.49,8.49,0,0,0-4.67-14.51L155,49.64l-2.61-5.33a8.46,8.46,0,0,0-7.64-4.75Z" fill="#e1001e"/><rect x="85.63" y="91.79" width="39.25" height="19" fill="#e1001e"/><path d="M80.49,86l4.39-8.84a1,1,0,0,1,1.8,0L91,86l9.77,1.44a1,1,0,0,1,.55,1.71L94.25,96l1.64,9.74a1,1,0,0,1-1.45,1l-8.73-4.62L77,106.78a1,1,0,0,1-1.45-1.06L77.21,96l-7-6.91a1,1,0,0,1,.56-1.71Z" fill="#fff"/><path d="M85.78,76.59a1,1,0,0,1,.9.56L91,86l9.77,1.44a1,1,0,0,1,.55,1.71L94.25,96l1.64,9.74a1,1,0,0,1-1,1.16,1,1,0,0,1-.47-.11l-8.73-4.62L77,106.78a1,1,0,0,1-.46.11,1,1,0,0,1-1-1.17L77.21,96l-7-6.91a1,1,0,0,1,.56-1.71L80.49,86l4.39-8.84a1,1,0,0,1,.9-.56m0-7.5h0a8.44,8.44,0,0,0-7.61,4.72l-2.64,5.31L69.66,80a8.49,8.49,0,0,0-4.75,14.48l4.23,4.15-1,5.84a8.49,8.49,0,0,0,8.37,10,8.62,8.62,0,0,0,3.94-1l5.25-2.75,5.24,2.77a8.5,8.5,0,0,0,12.36-8.92l-1-5.85,4.26-4.12A8.51,8.51,0,0,0,101.89,80L96,79.18l-2.61-5.33a8.45,8.45,0,0,0-7.63-4.76Z" fill="#e1001e"/><path d="M119.74,86l4.39-8.84a1,1,0,0,1,1.8,0L130.27,86,140,87.46a1,1,0,0,1,.55,1.71L133.5,96l1.64,9.74a1,1,0,0,1-1.45,1L125,102.21l-8.75,4.57a1,1,0,0,1-1.45-1.06l1.7-9.72-7-6.91a1,1,0,0,1,.56-1.71Z" fill="#fff"/><path d="M125,76.59a1,1,0,0,1,.9.56L130.27,86,140,87.46a1,1,0,0,1,.55,1.71L133.5,96l1.64,9.74a1,1,0,0,1-1,1.16,1,1,0,0,1-.47-.11L125,102.21l-8.75,4.57a1,1,0,0,1-.46.11,1,1,0,0,1-1-1.17l1.7-9.72-7-6.91a1,1,0,0,1,.56-1.71L119.74,86l4.39-8.84a1,1,0,0,1,.9-.56m0-7.5h0a8.44,8.44,0,0,0-7.61,4.72l-2.64,5.31-5.87.84a8.49,8.49,0,0,0-4.75,14.48l4.23,4.15-1,5.84a8.49,8.49,0,0,0,8.37,10,8.62,8.62,0,0,0,3.94-1l5.25-2.75,5.24,2.77a8.5,8.5,0,0,0,12.36-8.92l-1-5.85,4.26-4.12A8.51,8.51,0,0,0,141.14,80l-5.87-.86-2.61-5.33A8.45,8.45,0,0,0,125,69.09Z" fill="#e1001e"/><path d="M100.25,56.45l4.39-8.84a1,1,0,0,1,1.79,0l4.35,8.86,9.76,1.45a1,1,0,0,1,.55,1.7L114,66.5l1.65,9.74a1,1,0,0,1-1.46,1.05l-8.72-4.62-8.75,4.57a1,1,0,0,1-1.45-1.06L97,66.46l-7-6.91a1,1,0,0,1,.56-1.71Z" fill="#fff"/><path d="M105.53,47.06a1,1,0,0,1,.9.56l4.35,8.86,9.76,1.45a1,1,0,0,1,.55,1.7L114,66.5l1.65,9.74a1,1,0,0,1-1,1.17,1.06,1.06,0,0,1-.47-.12l-8.72-4.62-8.75,4.57a1,1,0,0,1-.47.12,1,1,0,0,1-1-1.18L97,66.46l-7-6.91a1,1,0,0,1,.56-1.71l9.78-1.39,4.39-8.84a1,1,0,0,1,.89-.55m0-7.5h0a8.44,8.44,0,0,0-7.61,4.71l-2.64,5.31-5.87.84A8.5,8.5,0,0,0,84.66,64.9l4.24,4.15-1,5.84a8.5,8.5,0,0,0,12.31,9l5.25-2.75,5.24,2.78a8.65,8.65,0,0,0,4,1A8.5,8.5,0,0,0,123,75l-1-5.85L126.31,65a8.49,8.49,0,0,0-4.67-14.51l-5.86-.87-2.61-5.33a8.46,8.46,0,0,0-7.64-4.75Z" fill="#e1001e"/></g></svg>