<?xml version="1.0" encoding="utf-8"?>
<!-- Generator: Adobe Illustrator 19.0.0, SVG Export Plug-In . SVG Version: 6.00 Build 0)  -->
<svg version="1.1" id="Layer_1" xmlns="http://www.w3.org/2000/svg" xmlns:xlink="http://www.w3.org/1999/xlink" x="0px" y="0px"
	 viewBox="-4171 2111 160 30" style="enable-background:new -4171 2111 160 30;" xml:space="preserve">
<style type="text/css">
	.st0{fill:#FFFFFF;}
	.st1{fill:#E1001E;}
</style>
<g>
	<g id="XMLID_2_">
		<path id="XMLID_23_" class="st0" d="M-4130.1,2132.9c-0.6,0.4-1.3,0.5-2.2,0.5c-1.5,0-2.7-0.6-3.4-1.7c-0.8-1.1-1.2-2.7-1.2-4.6
			c0-1.9,0.4-3.5,1.2-4.6c0.8-1.1,1.9-1.7,3.4-1.7c0.9,0,1.6,0.2,2.1,0.5s1,0.9,1.5,1.6l2.3-1.4c-0.6-1.1-1.4-1.9-2.4-2.5
			c-1-0.5-2.1-0.8-3.5-0.8c-1.1,0-2.1,0.2-3,0.7c-0.9,0.4-1.7,1-2.3,1.8c-0.6,0.8-1.1,1.7-1.5,2.8c-0.3,1.1-0.5,2.3-0.5,3.6
			s0.2,2.5,0.5,3.6c0.3,1.1,0.8,2,1.5,2.8c0.6,0.8,1.4,1.4,2.3,1.8c0.9,0.4,1.9,0.7,3,0.7c1.3,0,2.5-0.3,3.5-0.8
			c1-0.6,1.8-1.4,2.4-2.4l-2.1-1.4C-4129,2132-4129.5,2132.5-4130.1,2132.9z"/>
		<path id="XMLID_22_" class="st0" d="M-4117.4,2122.5c-0.7,0-1.3,0.1-1.9,0.4c-0.6,0.3-1,0.6-1.4,1.1v-6.2l-2.6,1.3v16.6h2.6v-7.5
			c0-1,0.2-1.9,0.7-2.4c0.5-0.6,1.1-0.9,2-0.9c0.8,0,1.5,0.3,1.9,0.8c0.5,0.5,0.7,1.4,0.7,2.8v7.3h2.6v-7.4c0-1.9-0.4-3.4-1.2-4.3
			C-4114.7,2123-4115.9,2122.5-4117.4,2122.5z"/>
		<path id="XMLID_21_" class="st0" d="M-4107.9,2117.8c-0.5,0-0.8,0.2-1.2,0.5c-0.3,0.3-0.5,0.7-0.5,1.2c0,0.4,0.2,0.8,0.5,1.1
			c0.3,0.3,0.7,0.5,1.2,0.5c0.4,0,0.8-0.2,1.1-0.5c0.3-0.3,0.5-0.7,0.5-1.1c0-0.5-0.2-0.8-0.5-1.2
			C-4107.1,2118-4107.5,2117.8-4107.9,2117.8z"/>
		<rect id="XMLID_20_" x="-4109.2" y="2122.8" class="st0" width="2.6" height="12.9"/>
		<path id="XMLID_19_" class="st0" d="M-4097.2,2122.5c-0.7,0-1.3,0.1-1.9,0.4c-0.6,0.3-1,0.6-1.4,1.1v-1.2h-2.5v12.9h2.6v-7.5
			c0-1,0.2-1.9,0.7-2.4c0.5-0.6,1.1-0.9,2-0.9c0.8,0,1.5,0.3,1.9,0.8c0.5,0.5,0.7,1.4,0.7,2.8v7.3h2.6v-7.4c0-1.9-0.4-3.4-1.2-4.3
			C-4094.5,2123-4095.7,2122.5-4097.2,2122.5z"/>
		<path id="XMLID_16_" class="st0" d="M-4080,2124.4c-0.5-0.6-1-1.1-1.7-1.4s-1.5-0.5-2.4-0.5c-0.8,0-1.6,0.1-2.3,0.4
			c-0.7,0.3-1.3,0.7-1.8,1.3c-0.5,0.6-0.9,1.3-1.2,2.1c-0.3,0.8-0.4,1.8-0.4,2.9c0,1.1,0.1,2,0.4,2.9c0.3,0.8,0.7,1.5,1.2,2.1
			c0.5,0.6,1.1,1,1.8,1.3c0.7,0.3,1.4,0.4,2.2,0.4c1,0,1.8-0.1,2.5-0.4s1.3-0.7,1.9-1.3l-1.5-1.6c-0.4,0.3-0.9,0.6-1.3,0.8
			c-0.5,0.2-0.9,0.3-1.5,0.3c-0.4,0-0.8-0.1-1.1-0.2c-0.4-0.1-0.7-0.4-1-0.6c-0.3-0.3-0.5-0.7-0.7-1.1c-0.2-0.4-0.3-1-0.4-1.6h8.5
			c0-0.1,0-0.3,0-0.5c0-0.2,0-0.4,0-0.7c0-0.9-0.1-1.7-0.3-2.5C-4079.2,2125.7-4079.5,2125-4080,2124.4z M-4087.2,2128.1
			c0.1-1,0.4-1.8,0.9-2.4c0.5-0.6,1.2-0.8,2-0.8c0.5,0,1,0.1,1.3,0.3c0.4,0.2,0.7,0.4,0.9,0.7c0.2,0.3,0.4,0.6,0.6,1
			c0.1,0.4,0.2,0.8,0.2,1.3L-4087.2,2128.1L-4087.2,2128.1z"/>
		<path id="XMLID_15_" class="st0" d="M-4068,2129.5c-0.4-0.3-0.8-0.6-1.4-0.9c-0.5-0.3-1.2-0.5-1.9-0.8c-0.5-0.2-0.9-0.4-1.2-0.5
			c-0.3-0.2-0.5-0.3-0.7-0.5c-0.2-0.1-0.3-0.3-0.4-0.4c-0.1-0.1-0.1-0.3-0.1-0.5c0-0.3,0.1-0.6,0.4-0.8s0.7-0.3,1.4-0.3
			c0.6,0,1.2,0.1,1.7,0.3s1.1,0.5,1.6,0.8l1.1-1.9c-0.6-0.4-1.2-0.8-2-1c-0.8-0.3-1.6-0.4-2.4-0.4c-0.6,0-1.2,0.1-1.8,0.2
			c-0.5,0.1-1,0.4-1.4,0.7c-0.4,0.3-0.7,0.7-0.9,1.1c-0.2,0.4-0.3,1-0.3,1.5s0.1,1,0.2,1.3c0.1,0.4,0.3,0.7,0.7,1
			c0.3,0.3,0.7,0.6,1.2,0.9s1.1,0.5,1.8,0.8c0.9,0.4,1.7,0.7,2.2,1s0.8,0.7,0.8,1.2c0,1-0.8,1.4-2.4,1.4c-0.6,0-1.2-0.1-1.9-0.3
			c-0.6-0.2-1.3-0.5-1.9-1l-1.2,1.9c0.7,0.5,1.4,0.9,2.3,1.2s1.8,0.5,2.6,0.5c0.6,0,1.3-0.1,1.8-0.2c0.6-0.1,1.1-0.3,1.5-0.6
			c0.4-0.3,0.8-0.7,1.1-1.2s0.4-1.1,0.4-1.8c0-0.6-0.1-1.1-0.3-1.6C-4067.3,2130.2-4067.6,2129.8-4068,2129.5z"/>
		<path id="XMLID_12_" class="st0" d="M-4054.9,2124.4c-0.5-0.6-1-1.1-1.7-1.4c-0.7-0.3-1.5-0.5-2.4-0.5c-0.8,0-1.6,0.1-2.3,0.4
			c-0.7,0.3-1.3,0.7-1.8,1.3c-0.5,0.6-0.9,1.3-1.2,2.1s-0.4,1.8-0.4,2.9c0,1.1,0.1,2,0.4,2.9c0.3,0.8,0.7,1.5,1.2,2.1
			c0.5,0.6,1.1,1,1.8,1.3s1.4,0.4,2.2,0.4c1,0,1.8-0.1,2.5-0.4c0.7-0.3,1.3-0.7,1.9-1.3l-1.5-1.6c-0.4,0.3-0.9,0.6-1.3,0.8
			c-0.5,0.2-0.9,0.3-1.5,0.3c-0.4,0-0.8-0.1-1.1-0.2c-0.4-0.1-0.7-0.4-1-0.6c-0.3-0.3-0.5-0.7-0.7-1.1s-0.3-1-0.4-1.6h8.5
			c0-0.1,0-0.3,0-0.5c0-0.2,0-0.4,0-0.7c0-0.9-0.1-1.7-0.3-2.5C-4054.1,2125.7-4054.4,2125-4054.9,2124.4z M-4062.1,2128.1
			c0.1-1,0.4-1.8,0.9-2.4c0.5-0.6,1.2-0.8,2-0.8c0.5,0,1,0.1,1.3,0.3c0.4,0.2,0.7,0.4,0.9,0.7c0.2,0.3,0.4,0.6,0.6,1
			c0.1,0.4,0.2,0.8,0.2,1.3L-4062.1,2128.1L-4062.1,2128.1z"/>
		<path id="XMLID_9_" class="st0" d="M-4039,2119.9c-0.5-0.5-1.1-0.8-1.8-1c-0.7-0.2-1.4-0.3-2.2-0.3h-7.2v17.2h2.6v-6.4h4.5
			c0.8,0,1.6-0.1,2.3-0.3s1.3-0.6,1.8-1c0.5-0.5,0.9-1,1.2-1.7c0.3-0.7,0.4-1.5,0.4-2.3c0-0.9-0.1-1.7-0.4-2.3
			C-4038.1,2120.9-4038.5,2120.3-4039,2119.9z M-4040.8,2126.1c-0.5,0.5-1.2,0.8-2.2,0.8h-4.6v-6h4.6c0.9,0,1.6,0.3,2.1,0.8
			s0.8,1.2,0.8,2.2C-4040.1,2124.8-4040.3,2125.5-4040.8,2126.1z"/>
		<path id="XMLID_6_" class="st0" d="M-4025.9,2124.3c-0.5-0.6-1.1-1-1.8-1.3s-1.5-0.5-2.3-0.5s-1.6,0.2-2.3,0.5s-1.3,0.7-1.8,1.3
			s-0.9,1.3-1.2,2.1c-0.3,0.8-0.4,1.8-0.4,2.8s0.1,1.9,0.4,2.8c0.3,0.8,0.7,1.5,1.2,2.1c0.5,0.6,1.1,1,1.8,1.4
			c0.7,0.3,1.4,0.5,2.3,0.5c0.8,0,1.6-0.2,2.3-0.5s1.3-0.7,1.8-1.3c0.5-0.6,0.9-1.3,1.2-2.1s0.4-1.8,0.4-2.9c0-1-0.1-1.9-0.4-2.7
			C-4025,2125.6-4025.4,2124.9-4025.9,2124.3z M-4027,2130.9c-0.1,0.5-0.4,1-0.6,1.4c-0.3,0.4-0.6,0.7-1,0.9
			c-0.4,0.2-0.8,0.3-1.3,0.3c-1,0-1.7-0.4-2.3-1.1c-0.6-0.7-0.9-1.8-0.9-3.3c0-1.3,0.3-2.3,0.8-3.1s1.3-1.2,2.3-1.2s1.8,0.4,2.4,1.2
			c0.6,0.8,0.9,1.8,0.9,3.2C-4026.8,2129.9-4026.9,2130.4-4027,2130.9z"/>
		<path id="XMLID_3_" class="st0" d="M-4013.5,2124c-0.4-0.4-0.8-0.7-1.4-1c-0.6-0.3-1.2-0.4-1.8-0.4c-0.7,0-1.3,0.1-1.9,0.4
			c-0.6,0.3-1.2,0.7-1.6,1.2c-0.5,0.5-0.8,1.2-1.1,2c-0.3,0.8-0.4,1.8-0.4,2.9c0,1.2,0.1,2.3,0.4,3.2s0.6,1.6,1.1,2.2
			c0.5,0.6,1,1,1.6,1.2c0.6,0.3,1.3,0.4,1.9,0.4c0.7,0,1.3-0.1,1.8-0.4c0.5-0.3,1.1-0.7,1.5-1.1v1.2h2.5v-18l-2.5,1.3v4.9H-4013.5z
			 M-4013.5,2132c-0.3,0.4-0.7,0.8-1.3,1.1c-0.5,0.3-1.1,0.5-1.7,0.5c-0.9,0-1.6-0.4-2.1-1.1s-0.7-1.9-0.7-3.5
			c0-1.4,0.2-2.4,0.7-3.1c0.5-0.7,1.2-1,2.1-1c0.3,0,0.6,0.1,0.9,0.2c0.3,0.1,0.6,0.2,0.8,0.4c0.3,0.2,0.5,0.3,0.7,0.5
			c0.2,0.2,0.4,0.4,0.5,0.6v5.4H-4013.5z"/>
	</g>
	<g>
		<g>
			<path id="XMLID_1_" class="st1" d="M-4158.4,2118.5c2,0,3.5-1.6,3.5-3.5c0-2-1.6-3.5-3.5-3.5s-3.6,1.5-3.6,3.5
				S-4160.4,2118.5-4158.4,2118.5z"/>
			<path class="st0" d="M-4145.9,2115.5c-0.1-0.1-0.3-0.1-0.4,0c-0.3,0.3-4.1,5.3-12.1,4.6c-4.8-0.4-10.6-3.4-12.1-4.6
				c-0.1-0.1-0.3-0.1-0.4,0c-0.1,0.1-0.1,0.3,0,0.4c0,0,6.2,5.8,6.2,11.8c0,6.5-5.1,11-6.2,12.3c-0.1,0.1-0.1,0.3,0,0.4
				c0.1,0.1,0.2,0.1,0.3,0.1c12.2-6.2,18.4-12.5,24.7-24.7C-4145.8,2115.7-4145.8,2115.6-4145.9,2115.5z"/>
		</g>
		<path class="st1" d="M-4145.9,2140.2c-1-3.5-3.4-8.4-6.5-11.8c-1.8,2.1-3.7,4-5.8,5.8c4,0.3,8.9,2,11.7,6.2l0,0l0,0l0,0
			c0.1,0.1,0.3,0.1,0.4,0C-4145.9,2140.4-4145.8,2140.3-4145.9,2140.2L-4145.9,2140.2z"/>
	</g>
</g>
</svg>
